<svg xmlns="http://www.w3.org/2000/svg" viewBox="0 0 50 50">
<circle fill="#ffe01b" cx="25" cy="25" r="25"/>
   <path d="M33.758 23.937h.72a1.926 1.926 0 000-1.44c-.18-.9-.45-1.35-.9-1.35s-.54.72-.36 1.53a5.805 5.805 0 00.54 1.26zm-4.32.72c.36.18.54.27.63.18.09-.09 0-.18-.09-.27a1.8 1.8 0 00-.9-.72 2.556 2.556 0 00-2.52.27 1.062 1.062 0 00-.45.54.09.09 0 00.09.09 7.326 7.326 0 011.71-.36 2.601 2.601 0 011.53.27zm-.72.36a3.024 3.024 0 00-.9.36.486.486 0 00-.27.36v.09h.09a2.043 2.043 0 00.36-.09 3.213 3.213 0 011.53-.18h.36v-.18a1.458 1.458 0 00-1.17-.36zm3.6 1.53a.567.567 0 00.81-.18.666.666 0 00-.36-.72.567.567 0 00-.81.18c-.18.27 0 .54.36.72zm1.98-1.8c-.27 0-.45.27-.45.63s.18.63.45.63.45-.27.45-.63a.486.486 0 00-.45-.63zm-17.37 6.39a.171.171 0 00-.27 0h-.27a.684.684 0 01-.45-.18.99.99 0 010-.72l.09-.18a2.43 2.43 0 00.18-1.98 1.881 1.881 0 00-1.35-.99 2.016 2.016 0 00-1.53.54l2.286.486"/>
   <path d="M40.868 29.787a3.852 3.852 0 00-.27-.9l-.27-.81a3.519 3.519 0 00.54-2.07 2.448 2.448 0 00-.72-1.44 6.3 6.3 0 00-2.61-1.35l-.81-.09s0-1.62-.09-2.25a9.297 9.297 0 00-.27-1.98 5.724 5.724 0 00-1.35-2.43 8.163 8.163 0 002.7-5.31c0-3.15-3.87-4.14-8.73-2.16l-.99.45s-1.8-1.8-1.89-1.8c-5.49-4.77-22.59 14.22-17.1 18.81l1.17.99a6.561 6.561 0 00-.36 2.7 5.346 5.346 0 001.8 3.42 5.526 5.526 0 003.6 1.44c2.16 4.86 7.02 7.92 12.69 8.1 6.12.18 11.25-2.7 13.41-7.83a9.81 9.81 0 00.72-3.42c.18-1.53-.63-2.07-1.17-2.07zm-25.02 3.87h-.54a4.401 4.401 0 01-4.05-3.69c-.18-2.16.9-3.87 2.88-4.23a2.493 2.493 0 01.81-.09c1.08.09 2.7.9 3.06 3.33.36 2.16-.09 4.32-2.16 4.68zm-2.07-9.27a4.5 4.5 0 00-2.97 1.89c-.36-.36-1.17-.99-1.26-1.26-1.08-1.98 1.17-5.94 2.7-8.1 3.78-5.4 9.81-9.54 12.51-8.82.45.09 1.98 1.89 1.98 1.89a35.514 35.514 0 00-5.31 3.69 25.515 25.515 0 00-7.65 10.71zm19.44 8.37l.09-.09a.09.09 0 00-.09-.09 12.6 12.6 0 01-5.58-.54c.27-.99 1.08-.63 2.25-.54a16.443 16.443 0 005.49-.63 12.753 12.753 0 004.14-2.07 6.237 6.237 0 01.54 1.98.9.9 0 01.63.09c.27.18.45.45.36 1.35a8.235 8.235 0 01-2.07 4.14 8.82 8.82 0 01-2.52 1.89 12.753 12.753 0 01-1.62.72c-4.32 1.44-8.73-.18-10.17-3.51l-.27-.81a6.822 6.822 0 011.53-6.48.45.45 0 000-.72c-.54-.81-2.52-2.25-2.16-4.95a3.654 3.654 0 013.6-3.24h.36a12.249 12.249 0 011.89.18 3.843 3.843 0 002.79-.9 2.628 2.628 0 011.08-.63.702.702 0 01.45 0 2.115 2.115 0 01.72.18c.81.54.9 1.8.99 2.79 0 .54.09 1.89.09 2.25.09.9.27.99.72 1.17l.81.27a4.383 4.383 0 012.07.99 1.08 1.08 0 01.36.72c.09.9-.72 2.07-2.97 3.06a13.959 13.959 0 01-7.38 1.17l-.72-.09c-1.62-.18-2.52 1.89-1.62 3.33.63.9 2.34 1.53 4.05 1.53 3.96 0 6.93-1.71 8.1-3.15l.09-.09c.09-.09 0-.09-.09-.09-.9.63-5.04 3.15-9.36 2.34a5.58 5.58 0 01-.99-.27c-.36-.18-1.17-.54-1.26-1.35a7.938 7.938 0 005.67.09zm-5.58-.63zm-6.75-15.12a16.596 16.596 0 014.5-3.69c.09 0 .09 0 .09.09a10.557 10.557 0 00-.45.99.09.09 0 00.09.09 8.658 8.658 0 013.96-1.44c.09 0 .09.09 0 .09a4.158 4.158 0 00-.63.63.09.09 0 00.09.09 7.38 7.38 0 013.33.9c.09 0 0 .18-.09.18a13.437 13.437 0 00-6.03 0 13.581 13.581 0 00-4.86 2.16s-.09-.09 0-.09z"/>
</svg>